# xmcd
#
# Track frame offsets: 
#        150
#        10154
#        18496
#        34537
#        74995
#        96842
#        127245
#        134186
#        156185
#        176368
#        226000
#        249653
#        270100
#        288642
#        298022
#
# Disc length: 4671 seconds
#
# Revision: 0
# Processed by: cddbd v1.5.2PL0 Copyright (c) Steve Scherf et al.
# Submitted via: ExactAudioCopy v0.95b3
#
DISCID=dd123d0f
DTITLE=Jimi Hendrix  - Moonbeams and Fairytales - Disc 14
DYEAR=1900
DGENRE=
TTITLE0=Introduction
TTITLE1=Sgt Pepper's Lonely Hearts Club Band
TTITLE2=Rock Me Baby
TTITLE3=Catfish Blues
TTITLE4=Hey Joe
TTITLE5=Purple Haze
TTITLE6=Introduction
TTITLE7=Killing Floor
TTITLE8=Foxy Lady
TTITLE9=Catfish Blues
TTITLE10=Hey Joe
TTITLE11=Fire
TTITLE12=The Wind Cries Mary
TTITLE13=Introduction
TTITLE14=Purple Haze
EXTD=
EXTT0=
EXTT1=
EXTT2=
EXTT3=
EXTT4=
EXTT5=
EXTT6=
EXTT7=
EXTT8=
EXTT9=
EXTT10=
EXTT11=
EXTT12=
EXTT13=
EXTT14=
PLAYORDER=
